<svg width="200" height="100" viewBox="0 0 200 100" fill="none" xmlns="http://www.w3.org/2000/svg">
<rect width="200" height="100" fill="#C4C4C4"/>
<path d="M50.5762 37.2891H44.6191L43.2812 41H41.3477L46.7773 26.7812H48.418L53.8574 41H51.9336L50.5762 37.2891ZM45.1855 35.7461H50.0195L47.5977 29.0957L45.1855 35.7461ZM60.5957 32.0547C60.3223 32.0091 60.026 31.9863 59.707 31.9863C58.5221 31.9863 57.7181 32.4909 57.2949 33.5V41H55.4883V30.4336H57.2461L57.2754 31.6543C57.8678 30.7103 58.7077 30.2383 59.7949 30.2383C60.1465 30.2383 60.4134 30.2839 60.5957 30.375V32.0547ZM66.3086 39.7207C66.9531 39.7207 67.5163 39.5254 67.998 39.1348C68.4798 38.7441 68.7467 38.2559 68.7988 37.6699H70.5078C70.4753 38.2754 70.2669 38.8516 69.8828 39.3984C69.4987 39.9453 68.9844 40.3815 68.3398 40.707C67.7018 41.0326 67.0247 41.1953 66.3086 41.1953C64.8698 41.1953 63.724 40.7168 62.8711 39.7598C62.0247 38.7962 61.6016 37.4811 61.6016 35.8145V35.5117C61.6016 34.4831 61.7904 33.5684 62.168 32.7676C62.5456 31.9668 63.0859 31.3451 63.7891 30.9023C64.4987 30.4596 65.3353 30.2383 66.2988 30.2383C67.4837 30.2383 68.4668 30.5931 69.248 31.3027C70.0358 32.0124 70.4557 32.9336 70.5078 34.0664H68.7988C68.7467 33.3828 68.4863 32.8229 68.0176 32.3867C67.5553 31.944 66.9824 31.7227 66.2988 31.7227C65.3809 31.7227 64.668 32.0547 64.1602 32.7188C63.6589 33.3763 63.4082 34.3301 63.4082 35.5801V35.9219C63.4082 37.1393 63.6589 38.0768 64.1602 38.7344C64.6615 39.3919 65.3776 39.7207 66.3086 39.7207ZM74.3457 31.7129C75.1465 30.7298 76.1882 30.2383 77.4707 30.2383C79.7038 30.2383 80.8301 31.498 80.8496 34.0176V41H79.043V34.0078C79.0365 33.2461 78.8607 32.6829 78.5156 32.3184C78.1771 31.9538 77.6465 31.7715 76.9238 31.7715C76.3379 31.7715 75.8236 31.9277 75.3809 32.2402C74.9382 32.5527 74.5931 32.9629 74.3457 33.4707V41H72.5391V26H74.3457V31.7129ZM87.9395 41.1953C86.5072 41.1953 85.3418 40.7266 84.4434 39.7891C83.5449 38.8451 83.0957 37.5853 83.0957 36.0098V35.6777C83.0957 34.6296 83.2943 33.6953 83.6914 32.875C84.0951 32.0482 84.6549 31.4036 85.3711 30.9414C86.0938 30.4727 86.875 30.2383 87.7148 30.2383C89.0885 30.2383 90.1562 30.6908 90.918 31.5957C91.6797 32.5007 92.0605 33.7962 92.0605 35.4824V36.2344H84.9023C84.9284 37.276 85.2311 38.1191 85.8105 38.7637C86.3965 39.4017 87.1387 39.7207 88.0371 39.7207C88.6751 39.7207 89.2155 39.5905 89.6582 39.3301C90.1009 39.0697 90.4883 38.7246 90.8203 38.2949L91.9238 39.1543C91.0384 40.515 89.7103 41.1953 87.9395 41.1953ZM87.7148 31.7227C86.9857 31.7227 86.3737 31.9896 85.8789 32.5234C85.3841 33.0508 85.0781 33.793 84.9609 34.75H90.2539V34.6133C90.2018 33.6953 89.9544 32.9857 89.5117 32.4844C89.069 31.9766 88.4701 31.7227 87.7148 31.7227ZM99.2676 32.0547C98.9941 32.0091 98.6979 31.9863 98.3789 31.9863C97.194 31.9863 96.39 32.4909 95.9668 33.5V41H94.1602V30.4336H95.918L95.9473 31.6543C96.5397 30.7103 97.3796 30.2383 98.4668 30.2383C98.8184 30.2383 99.0853 30.2839 99.2676 30.375V32.0547ZM115.615 28.3242H111.045V41H109.18V28.3242H104.619V26.7812H115.615V28.3242ZM115.986 35.6191C115.986 34.584 116.188 33.653 116.592 32.8262C117.002 31.9993 117.568 31.3613 118.291 30.9121C119.02 30.4629 119.85 30.2383 120.781 30.2383C122.22 30.2383 123.382 30.7363 124.268 31.7324C125.16 32.7285 125.605 34.0534 125.605 35.707V35.834C125.605 36.8626 125.407 37.7871 125.01 38.6074C124.619 39.4212 124.056 40.056 123.32 40.5117C122.591 40.9674 121.751 41.1953 120.801 41.1953C119.368 41.1953 118.206 40.6973 117.314 39.7012C116.429 38.7051 115.986 37.3867 115.986 35.7461V35.6191ZM117.803 35.834C117.803 37.0059 118.073 37.9466 118.613 38.6562C119.16 39.3659 119.889 39.7207 120.801 39.7207C121.719 39.7207 122.448 39.3626 122.988 38.6465C123.529 37.9238 123.799 36.9147 123.799 35.6191C123.799 34.4603 123.522 33.5228 122.969 32.8066C122.422 32.084 121.693 31.7227 120.781 31.7227C119.889 31.7227 119.17 32.0775 118.623 32.7871C118.076 33.4967 117.803 34.5124 117.803 35.834ZM137.227 38.5098L139.258 30.4336H141.064L137.988 41H136.523L133.955 32.9922L131.455 41H129.99L126.924 30.4336H128.721L130.801 38.3438L133.262 30.4336H134.717L137.227 38.5098ZM147.295 41.1953C145.863 41.1953 144.697 40.7266 143.799 39.7891C142.9 38.8451 142.451 37.5853 142.451 36.0098V35.6777C142.451 34.6296 142.65 33.6953 143.047 32.875C143.451 32.0482 144.01 31.4036 144.727 30.9414C145.449 30.4727 146.23 30.2383 147.07 30.2383C148.444 30.2383 149.512 30.6908 150.273 31.5957C151.035 32.5007 151.416 33.7962 151.416 35.4824V36.2344H144.258C144.284 37.276 144.587 38.1191 145.166 38.7637C145.752 39.4017 146.494 39.7207 147.393 39.7207C148.031 39.7207 148.571 39.5905 149.014 39.3301C149.456 39.0697 149.844 38.7246 150.176 38.2949L151.279 39.1543C150.394 40.515 149.066 41.1953 147.295 41.1953ZM147.07 31.7227C146.341 31.7227 145.729 31.9896 145.234 32.5234C144.74 33.0508 144.434 33.793 144.316 34.75H149.609V34.6133C149.557 33.6953 149.31 32.9857 148.867 32.4844C148.424 31.9766 147.826 31.7227 147.07 31.7227ZM158.623 32.0547C158.35 32.0091 158.053 31.9863 157.734 31.9863C156.549 31.9863 155.745 32.4909 155.322 33.5V41H153.516V30.4336H155.273L155.303 31.6543C155.895 30.7103 156.735 30.2383 157.822 30.2383C158.174 30.2383 158.441 30.2839 158.623 30.375V32.0547Z" fill="black"/>
</svg>
